<svg width="100" height="94" viewBox="0 0 100 94" fill="none" xmlns="http://www.w3.org/2000/svg">
<g filter="url(#filter0_d_1_1049)">
<path d="M50 91.875C76.9239 91.875 98.75 71.3081 98.75 45.9375C98.75 20.5669 76.9239 0 50 0C23.0761 0 1.25 20.5669 1.25 45.9375C1.25 71.3081 23.0761 91.875 50 91.875Z" fill="black"/>
</g>
<path d="M50 91.875C76.9239 91.875 98.75 71.3081 98.75 45.9375C98.75 20.5669 76.9239 0 50 0C23.0761 0 1.25 20.5669 1.25 45.9375C1.25 71.3081 23.0761 91.875 50 91.875Z" fill="#7543E3"/>
<path style="mix-blend-mode:soft-light" d="M50 91.875C76.9239 91.875 98.75 71.3081 98.75 45.9375C98.75 20.5669 76.9239 0 50 0C23.0761 0 1.25 20.5669 1.25 45.9375C1.25 71.3081 23.0761 91.875 50 91.875Z" fill="url(#paint0_linear_1_1049)"/>
<path d="M50 90.3438C76.0264 90.3438 97.125 70.4624 97.125 45.9375C97.125 21.4126 76.0264 1.53125 50 1.53125C23.9736 1.53125 2.875 21.4126 2.875 45.9375C2.875 70.4624 23.9736 90.3438 50 90.3438Z" stroke="black" stroke-opacity="0.097"/>
<path fill-rule="evenodd" clip-rule="evenodd" d="M36.662 35.4025C36.545 36.3366 36.4345 37.3196 36.363 38.3027C34.621 39.4848 32.9927 40.6914 31.4815 41.8981C30.7015 42.5228 29.9475 43.1476 29.239 43.7968C23.6457 38.2353 21.2602 33.2342 22.7975 30.6679C24.1495 28.3894 28.6865 27.7432 35.0565 28.9713C35.31 27.8994 35.5602 26.8734 35.8592 25.8904C28.1372 24.3714 22.2482 25.3759 20.0252 29.106C19.4275 30.1067 19.1193 31.2377 19.1315 32.3859V32.4993C19.177 37.7882 24.5167 44.8656 33.4315 51.5419C34.3447 52.234 35.3327 52.9261 36.3402 53.6182C36.5836 56.5493 37.0199 59.4633 37.6467 62.3433C29.9247 64.288 24.3087 63.798 22.7747 61.2286C21.4227 58.9531 23.1192 54.7789 27.38 50.0229L25.157 47.7444C19.8855 53.5509 17.7795 59.0634 20.0025 62.8119C21.5625 65.4487 24.9295 66.7013 29.4665 66.7013C34.0262 66.7013 39.7527 65.4272 46.0317 62.9497C47.3216 62.438 48.5971 61.8947 49.857 61.3204L50 61.25C51.9955 62.1412 53.965 62.9466 55.915 63.6388C56.76 63.9511 57.6082 64.2206 58.4337 64.4871C56.3017 71.9871 53.0485 76.4951 50 76.4951C47.296 76.4951 44.4327 72.9702 42.3462 66.9401C41.3204 67.2908 40.2807 67.6044 39.2295 67.8803C41.7482 75.1599 45.5735 79.625 50 79.625C56.4382 79.625 61.57 70.2048 63.338 56.4725C63.4517 55.5384 63.5427 54.5554 63.6337 53.5938C65.444 52.3688 67.1437 51.0947 68.7232 49.7993C69.4095 49.242 70.0814 48.6692 70.7382 48.0812C76.3542 53.6182 78.7332 58.6408 77.1992 61.2071C75.9415 63.3294 71.7912 64.043 66.1102 63.1273L64.963 62.9252C64.7263 63.9446 64.4597 64.9577 64.1635 65.9632C64.6445 66.052 65.1255 66.1408 65.5837 66.2082C67.2402 66.4889 68.9188 66.6385 70.6017 66.6553C75.207 66.6553 78.483 65.3384 79.9942 62.7935C82.0125 59.4002 80.5467 54.4635 75.8472 48.9296C73.4195 46.0508 70.2572 43.1476 66.5912 40.3791C65.6487 39.6655 64.6672 38.9703 63.6825 38.2812C63.511 36.201 63.2355 34.1294 62.857 32.0736C62.6945 31.2038 62.5352 30.3555 62.3532 29.5317C63.6565 29.1948 64.9207 28.9253 66.133 28.7262C71.8172 27.8075 75.9642 28.5241 77.2253 30.6464C78.5513 32.879 76.9263 36.9644 72.802 41.6286C73.6015 42.3881 74.336 43.1476 75.025 43.8826C75.3127 43.5737 75.587 43.2539 75.8472 42.924C80.524 37.387 82.0125 32.4533 79.9975 29.0601C77.9825 25.6668 72.8702 24.4388 65.6065 25.6209C62.2362 26.1568 58.5475 27.2072 54.719 28.6374C54.5597 28.7017 54.4232 28.7477 54.264 28.8151C52.9802 29.3051 51.6965 29.841 50.4127 30.4229C50.299 30.4657 50.1852 30.5331 50.0682 30.576C48.127 29.6877 46.1471 28.8765 44.1337 28.1444C43.2887 27.832 42.4372 27.5625 41.615 27.2961C43.7405 19.8174 46.997 15.3125 50.0422 15.3125C52.7462 15.3125 55.6322 18.8619 57.7187 24.8889C58.775 24.5521 59.8052 24.2428 60.8387 23.9518C58.242 16.7366 54.42 12.25 49.9707 12.25C43.5552 12.25 38.404 21.6703 36.662 35.4025ZM57.1467 34.2632C57.1012 34.2173 57.033 34.1959 56.9842 34.1714C55.9117 33.5711 54.8067 32.9893 53.757 32.4319C53.8434 32.3849 53.9349 32.3469 54.03 32.3186C55.3365 31.7826 56.643 31.2926 57.904 30.87C58.3395 30.7108 58.775 30.5791 59.1877 30.4443C59.3697 31.2712 59.529 32.0981 59.6915 32.9678C59.8735 33.9723 60.01 34.9982 60.1465 36.0487C59.1552 35.4407 58.1552 34.8455 57.1467 34.2632ZM40.2597 33.0781C40.419 32.1624 40.5782 31.2926 40.7862 30.4443C42.6339 31.0319 44.4534 31.695 46.2397 32.4319C45.1607 32.9893 44.0622 33.5711 42.9865 34.1714C42.9344 34.1939 42.8871 34.225 42.8467 34.2632C41.8165 34.8451 40.809 35.4454 39.8242 36.0487C39.9607 35.0197 40.0972 34.0397 40.2597 33.0781ZM44.5887 55.0454C43.8206 54.6249 43.0642 54.1858 42.3202 53.7285C41.3347 53.1408 40.3649 52.5302 39.4115 51.8971C39.2708 49.9205 39.2014 47.94 39.2035 45.9589C39.2035 44.8871 39.2262 43.8397 39.2717 42.8107C39.3172 41.8521 39.366 40.9364 39.4342 40.0238C41.0592 38.9519 42.7817 37.9015 44.5887 36.8725C45.2777 36.4744 45.9862 36.0916 46.6752 35.7363C47.7737 35.1544 48.8755 34.6185 49.974 34.0826C51.8055 34.9487 53.6018 35.8794 55.3592 36.8725C56.1392 37.3196 56.8932 37.7453 57.6277 38.1894C58.6352 38.7927 59.5972 39.396 60.5397 40.0208C60.751 43.0453 60.7966 46.0782 60.6762 49.1072C60.6307 50.0443 60.5852 50.9814 60.5137 51.8971C58.8887 52.969 57.1695 54.0194 55.3592 55.0454C54.8782 55.3149 54.42 55.5813 53.939 55.8263C52.7235 56.497 51.5112 57.1003 50.3185 57.6791C50.2047 57.7251 50.091 57.7924 49.974 57.8353C48.1445 56.9666 46.3483 56.034 44.5887 55.0454ZM33.269 47.3891C32.6742 46.9206 32.125 46.4275 31.5725 45.9589C32.3297 45.3128 33.1097 44.6421 33.9352 43.9959C34.621 43.4599 35.3327 42.9026 36.0867 42.3666C36.0412 43.2578 36.0217 44.1735 36.0217 45.0892V45.9589C36.0217 47.187 36.0412 48.3722 36.0867 49.5543C35.1195 48.8655 34.1796 48.1433 33.269 47.3891ZM63.9522 46.8532V45.9589C63.9522 44.7339 63.9295 43.5487 63.884 42.3666C65.448 43.4889 66.9473 44.689 68.3755 45.962C67.7807 46.4734 67.16 47.0094 66.5197 47.5239C66.4287 47.5882 66.3345 47.677 66.2435 47.7444C65.4895 48.3477 64.6835 48.9724 63.8612 49.5757C63.9067 48.6846 63.9522 47.7719 63.9522 46.8532ZM40.2825 58.9501C40.1041 57.9277 39.9513 56.9014 39.8242 55.8722C40.809 56.4756 41.7937 57.0544 42.824 57.6362C42.8695 57.6791 42.941 57.7036 42.9865 57.7251C44.0622 58.3284 45.138 58.9072 46.2365 59.4646C46.2365 59.4646 46.217 59.4646 46.217 59.4891C45.1024 59.9409 43.9788 60.3728 42.8467 60.7845C42.6875 60.8488 42.5282 60.8947 42.3657 60.9621C41.8392 61.1398 41.3127 61.3204 40.7862 61.4766C40.5996 60.6389 40.4316 59.7945 40.2825 58.9501ZM56.6202 60.6038C55.643 60.2477 54.6722 59.876 53.7082 59.4891L54.121 59.2869C55.0635 58.7969 55.9995 58.2824 56.9647 57.7679C58.0246 57.1519 59.0787 56.5271 60.127 55.8937C59.9872 56.8982 59.8507 57.9027 59.6915 58.8398C59.529 59.7586 59.347 60.6283 59.1617 61.4981C58.3395 61.2071 57.4912 60.9162 56.6202 60.6038ZM45.8497 45.9589C45.8497 43.7509 47.7055 41.9409 49.9772 41.9409C52.2425 41.9409 54.0982 43.7478 54.0982 45.9589C54.0982 48.1701 52.2457 49.9769 49.974 49.9769C47.7055 49.9769 45.8497 48.1701 45.8497 45.9589Z" fill="white"/>
<defs>
<filter id="filter0_d_1_1049" x="0.25" y="-0.5" width="99.5" height="93.875" filterUnits="userSpaceOnUse" color-interpolation-filters="sRGB">
<feFlood flood-opacity="0" result="BackgroundImageFix"/>
<feColorMatrix in="SourceAlpha" type="matrix" values="0 0 0 0 0 0 0 0 0 0 0 0 0 0 0 0 0 0 127 0" result="hardAlpha"/>
<feOffset dy="0.5"/>
<feGaussianBlur stdDeviation="0.5"/>
<feComposite in2="hardAlpha" operator="out"/>
<feColorMatrix type="matrix" values="0 0 0 0 0 0 0 0 0 0 0 0 0 0 0 0 0 0 0.199474 0"/>
<feBlend mode="normal" in2="BackgroundImageFix" result="effect1_dropShadow_1_1049"/>
<feBlend mode="normal" in="SourceGraphic" in2="effect1_dropShadow_1_1049" result="shape"/>
</filter>
<linearGradient id="paint0_linear_1_1049" x1="4876.25" y1="0" x2="4876.25" y2="9187.5" gradientUnits="userSpaceOnUse">
<stop stop-color="white" stop-opacity="0.5"/>
<stop offset="1" stop-opacity="0.5"/>
</linearGradient>
</defs>
</svg>
