<svg width="74" height="74" viewBox="0 0 74 74" fill="none" xmlns="http://www.w3.org/2000/svg">
<path d="M36.6983 6.14111L36.6159 6.2497C36.597 6.27415 36.5732 6.29406 36.546 6.30798C36.5189 6.3219 36.4892 6.32947 36.459 6.33013C35.1338 6.34823 33.7504 6.51514 32.4272 6.71622C23.9011 8.01524 16.4468 12.7669 11.6107 19.8995C11.5834 19.9402 11.5716 19.9893 11.5775 20.0377C11.5835 20.0861 11.6067 20.1306 11.6429 20.1629C11.7769 20.2822 11.9043 20.2507 12.0249 20.0684C12.6778 19.0804 13.4909 18.0441 14.4641 16.9596C15.0473 16.3101 15.8476 15.7289 16.5172 15.0794C16.5294 15.067 16.545 15.059 16.5608 15.0571C16.5766 15.0553 16.5913 15.0597 16.6017 15.0694L16.6459 15.1116C16.6501 15.1157 16.6534 15.1206 16.6556 15.1261C16.6578 15.1315 16.6588 15.1373 16.6587 15.1432C16.6585 15.1491 16.6571 15.1548 16.6545 15.1601C16.652 15.1654 16.6484 15.1701 16.6439 15.1739L16.3543 15.4092C16.1653 15.5634 16.1861 15.6016 16.4167 15.5238C16.7813 15.4005 17.1218 15.499 17.4382 15.8194C17.4621 15.8441 17.4919 15.8622 17.5246 15.872C17.5573 15.8819 17.592 15.8832 17.6252 15.8757L18.6568 15.6445C18.7046 15.6342 18.7469 15.6062 18.7754 15.5661C18.9846 15.2725 19.9437 14.8984 20.2695 14.7557C20.2949 14.7448 20.3223 14.7392 20.3499 14.7392C20.3776 14.7392 20.4049 14.7448 20.4304 14.7557C20.5403 14.8039 20.5872 14.7738 20.5711 14.6652C20.7628 14.4681 20.9941 14.375 21.2649 14.3857" stroke="#D9A03B" stroke-width="0.402174"/>
<path d="M21.2649 14.3857C17.3101 17.1165 14.2851 20.6416 12.1898 24.9609C12.1362 25.0722 12.0866 25.0708 12.041 24.9569C12.0061 24.8711 11.9311 24.8724 11.8158 24.9609C11.7757 24.9932 11.7237 25.0083 11.671 25.0031C11.5222 24.987 11.3975 25.0192 11.297 25.0997C11.1696 25.2015 11.0999 25.1707 11.0878 25.0072C11.061 24.609 10.7849 24.5031 10.2594 24.6894C10.1374 24.7337 9.99058 24.8657 9.81898 25.0856C9.79835 25.1124 9.7713 25.1335 9.74033 25.1471C9.70936 25.1606 9.67547 25.1662 9.6418 25.1632C9.60812 25.1601 9.57575 25.1487 9.54767 25.1299C9.51959 25.111 9.49672 25.0854 9.48116 25.0554L9.34241 24.7839" stroke="#D9A03B" stroke-width="0.402174"/>
<path d="M9.34245 24.784C9.34245 24.6714 9.30559 24.5909 9.23186 24.5427C9.2124 24.5298 9.1904 24.5214 9.16736 24.5179C9.14432 24.5144 9.1208 24.516 9.09843 24.5225C9.07605 24.529 9.05536 24.5403 9.03777 24.5556C9.02019 24.5709 9.00614 24.5898 8.99658 24.611C7.34164 28.3633 6.50914 32.8556 6.74843 37.004C6.74978 37.0421 6.74073 37.0797 6.72229 37.1126C6.49506 37.5248 6.73033 39.2803 6.78463 39.8172C7.54474 47.5189 10.7393 54.0106 16.3684 59.2925C16.5132 59.4292 16.5675 59.623 16.5313 59.8736" stroke="#D9A03B" stroke-width="0.402174"/>
<path d="M10.6576 42.8737C10.3318 42.808 10.248 42.9615 10.4062 43.3342C10.5852 43.7565 10.5329 44.227 10.7058 44.6956C11.0778 45.7131 11.3352 46.6582 11.9606 48.0939C13.0364 50.5633 14.4782 52.7773 16.1874 54.8746C16.2665 54.9711 16.2444 55.0267 16.1211 55.0415C15.9656 55.0603 15.8128 54.8558 15.6626 54.4282C15.6508 54.3939 15.63 54.3634 15.6023 54.3397L15.178 53.9898C15.1351 53.9549 15.1123 53.965 15.1096 54.02C15.1056 54.0743 15.1398 54.1668 15.188 54.213C15.5641 54.581 17.587 56.5617 15.4374 56.057C15.0982 55.9765 14.8878 56.0684 14.806 56.3325C14.7919 56.378 14.7945 56.4271 14.8133 56.4709C14.8321 56.5148 14.8658 56.5505 14.9085 56.5718C15.4099 56.8211 15.4307 57.057 14.9709 57.2796C14.9314 57.2988 14.8869 57.3046 14.8441 57.2963C14.8012 57.2879 14.7624 57.2658 14.7336 57.2333C13.7161 56.0912 12.7971 54.8753 11.9767 53.5856C11.8782 53.4308 11.6831 53.2981 11.5785 53.1251C10.069 50.6397 8.89872 48.0021 8.06756 45.2124C8.04343 45.1292 8.01527 44.9804 7.9831 44.7659C7.92881 44.3819 7.7056 44.0239 7.65332 43.6901C7.34498 41.7463 7.15462 40.4211 7.08223 39.7146C6.86237 37.6046 6.85098 35.4925 7.04804 33.3784C7.05877 33.2577 7.09698 33.0949 7.16266 32.8897C7.27929 32.5278 7.27527 31.9165 7.31147 31.6913C7.69487 29.305 8.37187 27.0026 9.34245 24.7839" stroke="#D9A03B" stroke-width="0.402174"/>
<path d="M56.0529 12.8774C55.8699 13.2012 55.6025 13.0886 55.3733 12.8834C55.1212 12.6555 54.7814 12.3968 54.3537 12.1073C50.5432 9.5273 46.1655 7.62301 41.6491 7.00769C40.6155 6.86692 39.5839 6.65578 38.5363 6.75432C38.2929 6.77644 36.648 6.51703 36.5857 6.77845C36.5833 6.78796 36.583 6.79791 36.585 6.80753C36.587 6.81715 36.5911 6.82619 36.5971 6.83395C36.6032 6.84172 36.6109 6.848 36.6197 6.85232C36.6285 6.85664 36.6382 6.85889 36.648 6.85888C37.1829 6.86692 37.742 6.93731 38.2407 6.95138C42.7061 7.08544 46.9196 8.19142 50.881 10.2693C52.186 10.953 53.6962 11.9162 54.4784 12.5336C54.8002 12.7869 55.1434 13.0115 55.508 13.2072C55.5542 13.2317 55.6085 13.2367 55.6588 13.2213L55.7292 13.2012C55.9665 13.1328 55.9852 13.1717 55.7855 13.3178C55.083 13.8339 54.5005 14.4647 54.038 15.21C54.022 15.2361 54.0001 15.2581 53.9742 15.2745C53.9483 15.2908 53.919 15.3011 53.8886 15.3044C53.8581 15.3077 53.8273 15.3039 53.7985 15.2935C53.7697 15.2831 53.7436 15.2662 53.7223 15.2442C53.103 14.6088 52.1619 14.1684 51.6371 13.8185C48.1402 11.4859 44.4261 10.3598 40.1811 9.71834C39.4653 9.60975 38.6629 9.65399 37.9028 9.61176C35.7894 9.49111 33.5211 9.77665 31.4399 10.1326C27.7841 10.758 24.3013 12.2641 21.2649 14.3856" stroke="#D9A03B" stroke-width="0.402174"/>
<path d="M50.3903 38.3714C50.1195 38.3634 49.9004 38.4807 49.7328 38.7233C45.5301 44.8069 41.3227 50.8891 37.1106 56.97C37.0919 56.9968 37.067 57.0187 37.038 57.0338C37.009 57.0488 36.9768 57.0566 36.9441 57.0564C36.9115 57.0562 36.8793 57.0481 36.8505 57.0326C36.8217 57.0172 36.7971 56.995 36.7788 56.968C32.5881 50.8871 28.3794 44.8029 24.1525 38.7153C24.0319 38.5404 23.5613 38.2206 24.052 38.2246C24.0822 38.2253 24.1119 38.2327 24.139 38.2463C24.1661 38.2598 24.1899 38.2792 24.2088 38.3031C25.0373 39.3628 25.7391 40.503 26.5475 41.5727C28.2507 43.8189 29.7628 46.2641 31.4118 48.5625" stroke="#D9A03B" stroke-width="0.402174"/>
<path d="M31.4117 48.5624C32.9742 50.9755 34.7196 53.2759 36.2398 55.7191C36.4101 55.9913 36.6199 56.2379 36.8692 56.4591C36.8907 56.478 36.9159 56.4922 36.9432 56.5006C36.9705 56.5089 36.9993 56.5114 37.0277 56.5078C37.056 56.5042 37.0833 56.4946 37.1076 56.4796C37.132 56.4646 37.1529 56.4446 37.1689 56.4209L42.739 48.2327" stroke="#D9A03B" stroke-width="0.402174"/>
<path d="M42.739 48.2326C44.9322 45.1842 47.0644 42.0995 49.1356 38.9786C49.2214 38.8499 49.3387 38.7353 49.4875 38.6348C49.5787 38.5731 49.6685 38.5074 49.757 38.4377C49.7819 38.4186 49.8019 38.3939 49.8154 38.3656C49.8289 38.3372 49.8356 38.3061 49.8348 38.2748C49.834 38.2434 49.8258 38.2127 49.8109 38.1851C49.796 38.1575 49.7747 38.1338 49.7489 38.116C49.2489 37.7634 48.9111 37.3867 48.7354 36.9858C48.5397 36.5381 48.2555 36.0501 47.8828 35.5219C47.7635 35.353 47.6791 35.1372 47.6295 34.8744C47.6244 34.8466 47.6136 34.8202 47.5976 34.7969C47.5817 34.7737 47.561 34.7542 47.537 34.7397C47.3077 34.603 47.2393 34.3033 47.1167 34.1425C46.5476 33.4005 46.1877 32.572 45.6849 31.8119C44.8665 30.5732 44.1748 29.1334 43.3322 27.8806C43.1767 27.65 43.0266 27.4175 42.8818 27.1829C42.8691 27.1612 42.8521 27.1422 42.8317 27.127C42.8113 27.1118 42.788 27.1007 42.7632 27.0944C42.5487 27.0354 42.4059 26.91 42.3348 26.7183C42.3228 26.6862 42.304 26.6587 42.2785 26.6359L41.5526 26.0105C41.5242 25.9858 41.4896 25.9695 41.4526 25.9634C41.4157 25.9574 41.3778 25.9618 41.3435 25.9763L40.2596 26.4388C40.2259 26.4533 40.1887 26.458 40.1521 26.4523C40.1155 26.4466 40.081 26.4308 40.0525 26.4067C39.6624 26.0789 39.5578 25.542 39.3286 25.2383C38.8956 24.6673 38.4056 24.1451 37.8586 23.6719" stroke="#D9A03B" stroke-width="0.402174"/>
<path d="M37.8586 23.672L37.1528 22.9099C37.1165 22.8711 37.0662 22.8482 37.0131 22.8463C36.96 22.8444 36.9083 22.8637 36.8693 22.8998C36.3169 23.4066 35.8578 23.987 35.4918 24.6412" stroke="#D9A03B" stroke-width="0.402174"/>
<path d="M35.4918 24.6411C35.2746 24.6921 35.0889 24.8027 34.9348 24.9729C34.9011 25.0092 34.8561 25.0321 34.8081 25.0373L34.1385 25.1137C34.0897 25.1191 34.0446 25.1423 34.0116 25.179C33.9787 25.2156 33.9601 25.2632 33.9595 25.3128L33.9535 25.7753C33.9532 25.802 33.9476 25.8284 33.937 25.853C33.9264 25.8776 33.911 25.8998 33.8917 25.9183C33.8725 25.9369 33.8497 25.9514 33.8247 25.961C33.7997 25.9706 33.7731 25.9751 33.7464 25.9743C32.9554 25.9489 32.259 26.1841 31.6571 26.6802C31.4573 26.8437 31.2234 27.0562 30.9553 27.3176C30.5792 27.6856 30.4264 28.2064 30.0162 28.6126C29.9787 28.6488 29.7789 28.9022 29.4169 29.3727C29.3204 29.4974 29.2856 29.4686 29.3124 29.2862C29.3188 29.2421 29.3401 29.2017 29.3727 29.1716C29.4263 29.1193 29.4257 29.0845 29.3707 29.0671C29.3523 29.0611 29.3354 29.051 29.3214 29.0376C29.3074 29.0241 29.2966 29.0077 29.2898 28.9896C29.2831 28.9714 29.2805 28.9519 29.2823 28.9326C29.2841 28.9133 29.2903 28.8946 29.3003 28.878C31.7603 24.7718 34.2189 20.665 36.6762 16.5574C36.7968 16.3543 36.7627 16.2136 36.64 16.0366" stroke="#D9A03B" stroke-width="0.402174"/>
<path d="M35.4918 24.6411C32.0921 30.2689 29.7086 34.2504 28.3412 36.5857C28.0583 37.0683 28.1964 37.321 28.7554 37.3438" stroke="#D9A03B" stroke-width="0.402174"/>
<path d="M28.8056 37.394C28.0073 37.567 28.3913 37.9792 28.8116 38.1662C31.0893 39.1877 33.3689 40.2066 35.6506 41.2227C36.1593 41.45 36.5575 41.6309 37.1326 41.4419C37.5106 41.3193 37.8666 41.2288 38.2285 41.0579C40.543 39.9579 42.9138 39.0048 45.2404 37.933C45.2641 37.9223 45.2828 37.9032 45.2929 37.8793C45.3029 37.8554 45.3036 37.8286 45.2947 37.8043L45.2746 37.752C45.2666 37.7296 45.2635 37.7058 45.2656 37.6822C45.2678 37.6585 45.2751 37.6357 45.287 37.6153C45.2989 37.595 45.3151 37.5775 45.3346 37.5643C45.354 37.5511 45.3761 37.5424 45.3993 37.5388C45.843 37.4664 45.8926 37.2211 45.5481 36.8029C45.4536 36.6882 45.4596 36.3544 45.343 36.1654C42.8187 32.0244 40.3238 27.8598 37.8585 23.6719" stroke="#D9A03B" stroke-width="0.402174"/>
<path d="M42.7389 48.2326C42.6598 47.6387 42.3863 47.3337 41.9185 47.3176C41.5183 47.3056 40.907 47.3297 40.7642 46.8974C40.7066 46.7244 40.7542 46.581 40.907 46.467C40.9298 46.4499 40.9488 46.4282 40.9627 46.4032C40.9765 46.3783 40.985 46.3507 40.9874 46.3223L40.9955 46.2398C41.0062 46.1044 40.974 46.093 40.899 46.2056C40.1161 47.3599 38.9444 48.994 37.384 51.1081C37.2459 51.2958 37.0897 51.3829 36.9154 51.3695C36.7532 51.3575 36.7492 51.3434 36.9034 51.3273C37.0012 51.3166 37.0341 51.2522 37.0019 51.1343C36.9944 51.1058 36.993 51.0762 36.9978 51.0474C37.0027 51.0186 37.0137 50.9913 37.0301 50.9674L42.2845 43.3964C42.3127 43.354 42.3568 43.3243 42.4071 43.314C43.0184 43.184 43.1672 42.8951 42.8535 42.4473C42.8345 42.4195 42.8087 42.397 42.7784 42.3819C42.7482 42.3668 42.7145 42.3595 42.6806 42.3608C42.2221 42.3796 41.7817 42.4822 41.3595 42.6685C40.0149 43.261 38.561 43.9119 36.9979 44.6211C36.9714 44.6331 36.9426 44.6391 36.9134 44.6388C36.8842 44.6384 36.8554 44.6317 36.829 44.6191C35.4415 43.9608 33.9923 43.2972 32.4815 42.6283C32.0364 42.4299 31.6919 42.3133 31.4479 42.2784C31.3976 42.2706 31.3457 42.2829 31.3031 42.3126C30.7628 42.696 30.8326 42.9527 31.5122 43.0827" stroke="#D9A03B" stroke-width="0.402174"/>
<path d="M31.5706 43.2256C31.454 43.1961 31.3387 43.19 31.2248 43.2075C31.1953 43.2123 31.1673 43.2235 31.1426 43.2403C31.118 43.257 31.0973 43.279 31.0822 43.3045C31.067 43.33 31.0577 43.3585 31.0549 43.388C31.052 43.4175 31.0558 43.4471 31.0659 43.4749C31.1624 43.739 31.2951 43.979 31.4641 44.1948C31.7603 44.5715 31.9426 44.8168 32.011 44.9308C32.4232 45.6205 32.9863 46.2439 33.3342 46.9658C33.432 47.1695 33.5426 47.368 33.666 47.561C33.6887 47.5967 33.6969 47.6398 33.6886 47.6811C33.6803 47.7224 33.6564 47.7587 33.6217 47.7822L33.5694 47.8164C33.5307 47.8429 33.5024 47.8821 33.4895 47.9273C33.4767 47.9725 33.4801 48.0208 33.4991 48.0637C33.6653 48.4418 33.6304 48.4645 33.3945 48.1321C33.3759 48.1061 33.3512 48.085 33.3224 48.0706C33.2937 48.0562 33.2618 48.049 33.2296 48.0496H32.0814C32.0495 48.0503 32.019 48.0623 31.9953 48.0833C31.9717 48.1044 31.9566 48.1331 31.9527 48.1643L31.9487 48.2185C31.9464 48.2387 31.9393 48.258 31.9281 48.2749C31.9169 48.2918 31.9019 48.3059 31.8843 48.3159C31.8666 48.3259 31.8469 48.3315 31.8266 48.3324C31.8064 48.3334 31.7862 48.3295 31.7677 48.3211C31.631 48.2594 31.5123 48.3399 31.4118 48.5624" stroke="#D9A03B" stroke-width="0.402174"/>
<path d="M36.6983 6.14111L36.6159 6.2497C36.5971 6.27415 36.5732 6.29406 36.5461 6.30798C36.5189 6.3219 36.4892 6.32947 36.4591 6.33013C35.1339 6.34823 33.7504 6.51514 32.4273 6.71622C23.9012 8.01524 16.4469 12.7669 11.6107 19.8995C11.5835 19.9402 11.5717 19.9893 11.5776 20.0377C11.5835 20.0861 11.6067 20.1306 11.6429 20.1629C11.777 20.2822 11.9043 20.2507 12.025 20.0684C12.6778 19.0804 13.4909 18.0441 14.4642 16.9596C15.0473 16.3101 15.8476 15.7289 16.5173 15.0794C16.5294 15.067 16.5451 15.059 16.5609 15.0571C16.5767 15.0553 16.5913 15.0597 16.6017 15.0694L16.646 15.1116C16.6502 15.1157 16.6535 15.1206 16.6557 15.1261C16.6579 15.1315 16.6589 15.1373 16.6587 15.1432C16.6585 15.1491 16.6571 15.1548 16.6546 15.1601C16.652 15.1654 16.6484 15.1701 16.6439 15.1739L16.3544 15.4092C16.1654 15.5634 16.1861 15.6016 16.4167 15.5238C16.7814 15.4005 17.1219 15.499 17.4382 15.8194C17.4622 15.8441 17.4919 15.8622 17.5247 15.872C17.5574 15.8819 17.592 15.8832 17.6252 15.8757L18.6568 15.6445C18.7046 15.6342 18.747 15.6062 18.7755 15.5661C18.9846 15.2725 19.9438 14.8984 20.2695 14.7557C20.295 14.7448 20.3223 14.7392 20.35 14.7392C20.3776 14.7392 20.405 14.7448 20.4304 14.7557C20.5403 14.8039 20.5873 14.7738 20.5712 14.6652C20.7629 14.4681 20.9941 14.375 21.2649 14.3857C17.3102 17.1164 14.2852 20.6415 12.1899 24.9608C12.1362 25.0721 12.0866 25.0708 12.0411 24.9568C12.0062 24.871 11.9311 24.8724 11.8158 24.9608C11.7757 24.9931 11.7238 25.0083 11.6711 25.0031C11.5223 24.987 11.3976 25.0192 11.297 25.0996C11.1697 25.2015 11.1 25.1706 11.0879 25.0071C11.0611 24.6089 10.7849 24.503 10.2594 24.6894C10.1374 24.7336 9.99065 24.8657 9.81905 25.0855C9.79842 25.1123 9.77137 25.1334 9.7404 25.147C9.70943 25.1606 9.67554 25.1661 9.64187 25.1631C9.60819 25.1601 9.57582 25.1486 9.54774 25.1298C9.51967 25.111 9.49679 25.0854 9.48123 25.0554L9.34248 24.7839C9.34248 24.6713 9.30561 24.5908 9.23188 24.5426C9.21243 24.5298 9.19042 24.5213 9.16738 24.5178C9.14434 24.5143 9.12082 24.5159 9.09845 24.5224C9.07608 24.5289 9.05538 24.5402 9.0378 24.5555C9.02021 24.5708 9.00616 24.5897 8.99661 24.611C7.34166 28.3632 6.50916 32.8555 6.74846 37.0039C6.7498 37.042 6.74076 37.0796 6.72231 37.1125C6.49509 37.5248 6.73036 39.2802 6.78465 39.8171C7.54476 47.5188 10.7394 54.0105 16.3685 59.2924C16.5132 59.4291 16.5675 59.6229 16.5313 59.8736C9.59987 53.8168 5.84759 44.8363 6.13514 35.7431C6.65596 19.2821 20.2635 6.24367 36.6983 6.14111Z" fill="white"/>
<path d="M36.6984 6.14111C43.955 6.1639 50.4065 8.40937 56.053 12.8775C55.8701 13.2013 55.6026 13.0887 55.3734 12.8836C55.1213 12.6557 54.7815 12.3969 54.3539 12.1074C50.5433 9.52742 46.1656 7.62312 41.6492 7.0078C40.6156 6.86704 39.584 6.6559 38.5364 6.75443C38.293 6.77655 36.6482 6.51715 36.5858 6.77856C36.5834 6.78807 36.5831 6.79802 36.5851 6.80764C36.5871 6.81726 36.5912 6.8263 36.5973 6.83406C36.6033 6.84183 36.611 6.84811 36.6198 6.85243C36.6286 6.85675 36.6383 6.859 36.6482 6.85899C37.183 6.86704 37.7421 6.93742 38.2408 6.95149C42.7062 7.08555 46.9197 8.19153 50.8811 10.2694C52.1861 10.9531 53.6963 11.9163 54.4785 12.5337C54.8003 12.787 55.1435 13.0116 55.5081 13.2073C55.5543 13.2318 55.6086 13.2368 55.6589 13.2214L55.7293 13.2013C55.9666 13.1329 55.9853 13.1718 55.7856 13.3179C55.0831 13.834 54.5007 14.4648 54.0382 15.2101C54.0221 15.2362 54.0002 15.2583 53.9743 15.2746C53.9484 15.291 53.9191 15.3012 53.8887 15.3045C53.8582 15.3078 53.8274 15.3041 53.7986 15.2936C53.7698 15.2832 53.7437 15.2663 53.7224 15.2443C53.1031 14.6089 52.162 14.1685 51.6372 13.8186C48.1403 11.486 44.4262 10.3599 40.1812 9.71845C39.4654 9.60986 38.663 9.6541 37.9029 9.61187C35.7895 9.49122 33.5212 9.77677 31.44 10.1327C27.7842 10.7581 24.3014 12.2642 21.265 14.3857C20.9942 14.375 20.763 14.4681 20.5712 14.6652C20.5873 14.7738 20.5404 14.8039 20.4305 14.7557C20.4051 14.7448 20.3777 14.7392 20.3501 14.7392C20.3224 14.7392 20.295 14.7448 20.2696 14.7557C19.9439 14.8984 18.9847 15.2725 18.7755 15.5661C18.7471 15.6062 18.7047 15.6342 18.6569 15.6445L17.6253 15.8757C17.5921 15.8832 17.5575 15.8819 17.5247 15.872C17.492 15.8622 17.4622 15.8441 17.4383 15.8194C17.1219 15.499 16.7814 15.4005 16.4168 15.5238C16.1862 15.6016 16.1654 15.5634 16.3545 15.4092L16.644 15.1739C16.6485 15.1701 16.6521 15.1654 16.6546 15.1601C16.6572 15.1548 16.6586 15.1491 16.6588 15.1432C16.659 15.1373 16.6579 15.1315 16.6557 15.1261C16.6535 15.1206 16.6502 15.1157 16.646 15.1116L16.6018 15.0694C16.5914 15.0597 16.5768 15.0553 16.561 15.0571C16.5452 15.059 16.5295 15.067 16.5173 15.0794C15.8477 15.7289 15.0474 16.3101 14.4642 16.9596C13.491 18.0441 12.6779 19.0804 12.0251 20.0684C11.9044 20.2507 11.777 20.2822 11.643 20.1629C11.6068 20.1306 11.5836 20.0861 11.5777 20.0377C11.5718 19.9893 11.5835 19.9402 11.6108 19.8995C16.447 12.7669 23.9012 8.01524 32.4273 6.71622C33.7505 6.51514 35.134 6.34823 36.4591 6.33013C36.4893 6.32947 36.519 6.3219 36.5462 6.30798C36.5733 6.29406 36.5972 6.27415 36.616 6.2497L36.6984 6.14111Z" fill="white"/>
<path d="M56.0529 12.8777C56.1964 12.95 56.303 13.06 56.3727 13.2074C56.3889 13.2418 56.3951 13.2801 56.3904 13.3178C56.3858 13.3555 56.3706 13.3912 56.3465 13.4206L54.1507 16.1031C54.1176 16.1438 54.0695 16.1697 54.0168 16.1749C53.9641 16.1802 53.911 16.1645 53.8691 16.1312C50.6839 13.5774 47.0992 11.832 43.115 10.8949C23.7121 6.33027 6.62576 23.5554 10.6576 42.8738C10.3318 42.8081 10.248 42.9616 10.4062 43.3343C10.5852 43.7566 10.5329 44.2271 10.7058 44.6956C11.0778 45.7132 11.3352 46.6583 11.9606 48.094C13.0364 50.5634 14.4782 52.7773 16.1874 54.8747C16.2665 54.9712 16.2444 55.0268 16.1211 55.0416C15.9656 55.0603 15.8128 54.8559 15.6626 54.4283C15.6508 54.394 15.63 54.3635 15.6023 54.3398L15.178 53.9899C15.1351 53.955 15.1123 53.9651 15.1096 54.0201C15.1056 54.0743 15.1398 54.1668 15.188 54.2131C15.5641 54.5811 17.587 56.5618 15.4374 56.0571C15.0982 55.9766 14.8878 56.0685 14.806 56.3326C14.7919 56.3781 14.7945 56.4272 14.8133 56.471C14.8321 56.5149 14.8658 56.5506 14.9085 56.5718C15.4099 56.8212 15.4307 57.0571 14.9709 57.2797C14.9314 57.2988 14.8869 57.3047 14.8441 57.2964C14.8012 57.288 14.7624 57.2659 14.7336 57.2334C13.7161 56.0912 12.7971 54.8753 11.9767 53.5857C11.8782 53.4309 11.6831 53.2981 11.5785 53.1252C10.069 50.6398 8.89872 48.0022 8.06756 45.2124C8.04343 45.1293 8.01527 44.9805 7.9831 44.766C7.92881 44.382 7.7056 44.024 7.65332 43.6902C7.34498 41.7464 7.15462 40.4212 7.08223 39.7147C6.86237 37.6047 6.85098 35.4926 7.04804 33.3785C7.05877 33.2578 7.09698 33.0949 7.16266 32.8898C7.27929 32.5279 7.27527 31.9166 7.31147 31.6914C7.69487 29.3051 8.37187 27.0027 9.34245 24.784L9.4812 25.0555C9.49676 25.0855 9.51963 25.1111 9.54771 25.1299C9.57579 25.1488 9.60816 25.1602 9.64184 25.1632C9.67551 25.1662 9.7094 25.1607 9.74037 25.1471C9.77134 25.1336 9.79839 25.1124 9.81902 25.0856C9.99062 24.8658 10.1374 24.7337 10.2594 24.6895C10.7849 24.5032 11.0611 24.6091 11.0879 25.0072C11.0999 25.1708 11.1697 25.2016 11.297 25.0997C11.3976 25.0193 11.5222 24.9871 11.671 25.0032C11.7237 25.0084 11.7757 24.9932 11.8158 24.961C11.9311 24.8725 12.0062 24.8712 12.041 24.957C12.0866 25.0709 12.1362 25.0722 12.1898 24.961C14.2852 20.6416 17.3102 17.1166 21.2649 14.3858C24.3013 12.2643 27.7841 10.7582 31.4399 10.1328C33.5211 9.7769 35.7894 9.49135 37.9028 9.61201C38.6629 9.65423 39.4653 9.61 40.1811 9.71858C44.4261 10.36 48.1402 11.4861 51.6371 13.8187C52.1619 14.1686 53.103 14.609 53.7223 15.2445C53.7436 15.2665 53.7697 15.2833 53.7985 15.2938C53.8273 15.3042 53.8581 15.3079 53.8886 15.3046C53.919 15.3013 53.9483 15.2911 53.9742 15.2747C54.0001 15.2584 54.022 15.2363 54.038 15.2103C54.5005 14.4649 55.083 13.8342 55.7855 13.318C55.9852 13.1719 55.9665 13.133 55.7292 13.2014L55.6588 13.2215C55.6085 13.237 55.5542 13.2319 55.508 13.2074C55.1434 13.0117 54.8002 12.7872 54.4784 12.5338C53.6962 11.9165 52.186 10.9533 50.881 10.2696C46.9196 8.19166 42.7061 7.08568 38.2407 6.95163C37.742 6.93755 37.1829 6.86717 36.648 6.85913C36.6382 6.85913 36.6285 6.85689 36.6197 6.85256C36.6109 6.84824 36.6032 6.84196 36.5971 6.8342C36.5911 6.82643 36.587 6.81739 36.585 6.80777C36.583 6.79815 36.5833 6.7882 36.5857 6.77869C36.648 6.51728 38.2929 6.77668 38.5363 6.75456C39.5839 6.65603 40.6155 6.86717 41.6491 7.00793C46.1655 7.62326 50.5432 9.52755 54.3537 12.1075C54.7814 12.3971 55.1212 12.6558 55.3733 12.8837C55.6025 13.0888 55.8699 13.2014 56.0529 12.8777Z" fill="white"/>
<path d="M50.3903 38.3715C50.1195 38.3635 49.9004 38.4808 49.7328 38.7234C45.5301 44.8069 41.3227 50.8892 37.1106 56.97C37.0919 56.9969 37.067 57.0188 37.038 57.0338C37.009 57.0489 36.9768 57.0567 36.9441 57.0565C36.9115 57.0563 36.8793 57.0481 36.8505 57.0327C36.8217 57.0173 36.7971 56.9951 36.7788 56.968C32.5881 50.8871 28.3794 44.8029 24.1525 38.7154C24.0319 38.5404 23.5613 38.2207 24.052 38.2247C24.0822 38.2254 24.1119 38.2328 24.139 38.2463C24.1661 38.2599 24.1899 38.2793 24.2088 38.3031C25.0373 39.3629 25.7391 40.503 26.5475 41.5728C28.2507 43.8189 29.7628 46.2642 31.4118 48.5626C32.9742 50.9756 34.7196 53.2761 36.2399 55.7193C36.4101 55.9914 36.6199 56.2381 36.8693 56.4593C36.8907 56.4782 36.9159 56.4923 36.9432 56.5007C36.9706 56.5091 36.9994 56.5115 37.0277 56.5079C37.0561 56.5043 37.0833 56.4947 37.1077 56.4797C37.132 56.4647 37.1529 56.4447 37.1689 56.4211L42.739 48.2328C44.9322 45.1843 47.0644 42.0996 49.1356 38.9788C49.2214 38.8501 49.3387 38.7355 49.4875 38.6349C49.5786 38.5733 49.6684 38.5076 49.7569 38.4379C49.7818 38.4187 49.8018 38.394 49.8154 38.3657C49.8289 38.3374 49.8355 38.3063 49.8347 38.2749C49.834 38.2436 49.8258 38.2128 49.8108 38.1852C49.7959 38.1576 49.7747 38.1339 49.7489 38.1161C49.2488 37.7635 48.911 37.3868 48.7354 36.986C48.5397 36.5382 48.2555 36.0503 47.8828 35.5221C47.7635 35.3532 47.679 35.1373 47.6294 34.8746C47.6244 34.8467 47.6136 34.8203 47.5976 34.7971C47.5817 34.7739 47.561 34.7543 47.5369 34.7399C47.3077 34.6031 47.2393 34.3035 47.1166 34.1426C46.5476 33.4006 46.1876 32.5721 45.6849 31.812C44.8665 30.5733 44.1747 29.1336 43.3322 27.8808C43.1767 27.6502 43.0265 27.4176 42.8818 27.183C42.8691 27.1613 42.852 27.1424 42.8317 27.1272C42.8113 27.112 42.788 27.1009 42.7631 27.0945C42.5486 27.0356 42.4058 26.9102 42.3348 26.7185C42.3227 26.6863 42.304 26.6588 42.2785 26.6361L41.5526 26.0107C41.5242 25.9859 41.4896 25.9696 41.4526 25.9636C41.4156 25.9575 41.3778 25.962 41.3434 25.9765L40.2596 26.439C40.2259 26.4535 40.1886 26.4581 40.152 26.4525C40.1154 26.4468 40.081 26.431 40.0525 26.4068C39.6623 26.079 39.5578 25.5421 39.3285 25.2385C38.8955 24.6674 38.4056 24.1453 37.8586 23.672L37.1528 22.9099C37.1165 22.8711 37.0662 22.8482 37.0131 22.8464C36.96 22.8445 36.9082 22.8637 36.8693 22.8999C36.3169 23.4066 35.8578 23.9871 35.4918 24.6413C35.2746 24.6922 35.089 24.8028 34.9348 24.9731C34.9011 25.0094 34.8561 25.0322 34.8081 25.0374L34.1385 25.1138C34.0897 25.1192 34.0446 25.1424 34.0117 25.1791C33.9787 25.2158 33.9602 25.2634 33.9595 25.3129L33.9535 25.7754C33.9532 25.8022 33.9476 25.8286 33.937 25.8532C33.9264 25.8777 33.9111 25.8999 33.8918 25.9185C33.8725 25.937 33.8497 25.9515 33.8247 25.9611C33.7997 25.9707 33.7731 25.9753 33.7464 25.9745C32.9554 25.949 32.259 26.1843 31.6571 26.6803C31.4573 26.8438 31.2234 27.0563 30.9553 27.3177C30.5793 27.6857 30.4264 28.2065 30.0162 28.6127C29.9787 28.6489 29.7789 28.9023 29.417 29.3729C29.3204 29.4975 29.2856 29.4687 29.3124 29.2864C29.3189 29.2423 29.3402 29.2018 29.3727 29.1718C29.4264 29.1195 29.4257 29.0846 29.3707 29.0672C29.3523 29.0612 29.3354 29.0511 29.3214 29.0377C29.3074 29.0243 29.2966 29.0079 29.2898 28.9897C29.2831 28.9715 29.2805 28.952 29.2823 28.9327C29.2841 28.9134 29.2903 28.8948 29.3003 28.8782C31.7603 24.772 34.2189 20.6651 36.6762 16.5576C36.7969 16.3545 36.7627 16.2137 36.64 16.0368C36.7674 15.8719 36.9081 15.9181 37.0623 16.1755C41.4902 23.5581 45.9329 30.9567 50.3903 38.3715Z" fill="white"/>
<path d="M58.4238 16.5876C58.6356 16.3785 58.8602 16.1741 59.0974 15.9743C59.1366 15.9415 59.1867 15.9247 59.2375 15.9273C59.2883 15.9299 59.336 15.9517 59.3709 15.9884C60.3053 16.9549 61.1626 17.9865 61.9428 19.0831C61.9739 19.127 61.9864 19.1812 61.9778 19.234C61.9691 19.2868 61.9399 19.3337 61.8966 19.3646L59.0814 21.3815C59.0399 21.4109 58.9889 21.4235 58.9385 21.4168C58.8881 21.4101 58.8422 21.3846 58.8099 21.3453L56.5497 18.5965C56.5174 18.5576 56.5011 18.508 56.5041 18.4576C56.5071 18.4072 56.5291 18.3598 56.5658 18.325C56.9116 17.9912 57.2709 17.6601 57.6436 17.3316C57.8286 17.1694 58.0887 16.9214 58.4238 16.5876Z" fill="white"/>
<path d="M36.64 16.0366C36.7627 16.2136 36.7969 16.3543 36.6762 16.5574C34.2189 20.665 31.7603 24.7718 29.3003 28.878C29.2903 28.8946 29.2841 28.9133 29.2823 28.9326C29.2805 28.9519 29.2831 28.9714 29.2899 28.9896C29.2966 29.0077 29.3074 29.0241 29.3214 29.0376C29.3354 29.051 29.3523 29.0611 29.3707 29.0671C29.4257 29.0845 29.4264 29.1193 29.3727 29.1716C29.3402 29.2017 29.3189 29.2421 29.3124 29.2862C29.2856 29.4686 29.3205 29.4974 29.417 29.3727C29.7789 28.9022 29.9787 28.6488 30.0162 28.6126C30.4264 28.2064 30.5793 27.6856 30.9553 27.3176C31.2234 27.0562 31.4573 26.8437 31.6571 26.6802C32.259 26.1841 32.9554 25.9489 33.7464 25.9743C33.7731 25.9751 33.7998 25.9706 33.8247 25.961C33.8497 25.9514 33.8725 25.9369 33.8918 25.9183C33.9111 25.8998 33.9265 25.8776 33.9371 25.853C33.9477 25.8284 33.9532 25.802 33.9535 25.7753L33.9595 25.3128C33.9602 25.2632 33.9787 25.2156 34.0117 25.179C34.0446 25.1423 34.0897 25.1191 34.1385 25.1137L34.8081 25.0373C34.8561 25.0321 34.9011 25.0092 34.9348 24.9729C35.089 24.8027 35.2746 24.6921 35.4918 24.6411C32.0921 30.2689 29.7086 34.2504 28.3412 36.5857C28.0583 37.0683 28.1964 37.321 28.7554 37.3438L28.8057 37.3941C28.0074 37.567 28.3914 37.9792 28.8117 38.1662C31.0894 39.1878 33.369 40.2066 35.6507 41.2228C36.1594 41.45 36.5576 41.631 37.1327 41.4419C37.5107 41.3193 37.8667 41.2288 38.2286 41.0579C40.5431 39.9579 42.9139 39.0048 45.2405 37.933C45.2641 37.9224 45.2829 37.9032 45.293 37.8793C45.303 37.8554 45.3037 37.8286 45.2948 37.8043L45.2747 37.752C45.2666 37.7297 45.2636 37.7058 45.2657 37.6822C45.2679 37.6586 45.2751 37.6357 45.2871 37.6153C45.299 37.595 45.3152 37.5775 45.3347 37.5643C45.3541 37.5511 45.3762 37.5424 45.3994 37.5388C45.8431 37.4665 45.8927 37.2211 45.5482 36.8029C45.4537 36.6883 45.4597 36.3544 45.3431 36.1654C42.8188 32.0244 40.3239 27.8599 37.8586 23.6719C38.4056 24.1451 38.8955 24.6673 39.3286 25.2384C39.5578 25.542 39.6624 26.0789 40.0525 26.4067C40.081 26.4308 40.1155 26.4466 40.152 26.4523C40.1886 26.458 40.2259 26.4533 40.2596 26.4388L41.3434 25.9763C41.3778 25.9619 41.4156 25.9574 41.4526 25.9634C41.4896 25.9695 41.5242 25.9858 41.5526 26.0105L42.2785 26.6359C42.304 26.6587 42.3227 26.6862 42.3348 26.7184C42.4059 26.9101 42.5486 27.0354 42.7631 27.0944C42.788 27.1007 42.8113 27.1118 42.8317 27.127C42.852 27.1422 42.8691 27.1612 42.8818 27.1829C43.0265 27.4175 43.1767 27.6501 43.3322 27.8806C44.1748 29.1334 44.8665 30.5732 45.6849 31.8119C46.1876 32.572 46.5476 33.4005 47.1167 34.1425C47.2393 34.3034 47.3077 34.603 47.5369 34.7397C47.561 34.7542 47.5817 34.7737 47.5976 34.797C47.6136 34.8202 47.6244 34.8466 47.6294 34.8744C47.679 35.1372 47.7635 35.353 47.8828 35.5219C48.2555 36.0501 48.5397 36.5381 48.7354 36.9859C48.911 37.3867 49.2488 37.7634 49.7489 38.116C49.7747 38.1338 49.7959 38.1575 49.8109 38.1851C49.8258 38.2127 49.834 38.2434 49.8348 38.2748C49.8355 38.3062 49.8289 38.3373 49.8154 38.3656C49.8018 38.3939 49.7818 38.4186 49.7569 38.4377C49.6684 38.5074 49.5786 38.5731 49.4875 38.6348C49.3387 38.7353 49.2214 38.8499 49.1356 38.9786C47.0644 42.0995 44.9322 45.1842 42.739 48.2327C42.6599 47.6388 42.3864 47.3338 41.9186 47.3177C41.5184 47.3056 40.9071 47.3298 40.7643 46.8974C40.7067 46.7245 40.7543 46.5811 40.9071 46.4671C40.9299 46.45 40.9489 46.4282 40.9627 46.4033C40.9766 46.3783 40.985 46.3508 40.9875 46.3223L40.9956 46.2399C41.0063 46.1045 40.9741 46.0931 40.899 46.2057C40.1161 47.3599 38.9445 48.9941 37.384 51.1082C37.246 51.2959 37.0898 51.383 36.9155 51.3696C36.7533 51.3575 36.7493 51.3435 36.9034 51.3274C37.0013 51.3167 37.0342 51.2523 37.002 51.1343C36.9944 51.1059 36.993 51.0763 36.9979 51.0475C37.0028 51.0187 37.0138 50.9914 37.0301 50.9674L42.2845 43.3965C42.3128 43.354 42.3569 43.3244 42.4072 43.3141C43.0185 43.184 43.1673 42.8951 42.8536 42.4474C42.8346 42.4196 42.8087 42.3971 42.7785 42.382C42.7483 42.3669 42.7146 42.3596 42.6807 42.3609C42.2222 42.3797 41.7818 42.4822 41.3595 42.6686C40.0149 43.2611 38.5611 43.912 36.998 44.6211C36.9715 44.6331 36.9426 44.6392 36.9135 44.6388C36.8843 44.6385 36.8555 44.6318 36.829 44.6191C35.4415 43.9609 33.9924 43.2973 32.4815 42.6284C32.0365 42.43 31.6919 42.3133 31.448 42.2785C31.3977 42.2707 31.3458 42.2829 31.3032 42.3127C30.7629 42.6961 30.8326 42.9528 31.5123 43.0828L31.5706 43.2256C31.454 43.1961 31.3387 43.1901 31.2247 43.2075C31.1953 43.2123 31.1672 43.2235 31.1426 43.2403C31.1179 43.2571 31.0973 43.279 31.0821 43.3045C31.067 43.3301 31.0576 43.3586 31.0548 43.388C31.052 43.4175 31.0558 43.4472 31.0659 43.4749C31.1624 43.739 31.2951 43.979 31.464 44.1948C31.7603 44.5715 31.9426 44.8169 32.011 44.9308C32.4232 45.6205 32.9863 46.2439 33.3342 46.9658C33.432 47.1696 33.5426 47.368 33.6659 47.561C33.6887 47.5968 33.6968 47.6399 33.6886 47.6812C33.6803 47.7225 33.6563 47.7587 33.6217 47.7822L33.5694 47.8164C33.5307 47.8429 33.5024 47.8822 33.4895 47.9274C33.4767 47.9725 33.48 48.0208 33.499 48.0637C33.6653 48.4418 33.6304 48.4646 33.3945 48.1321C33.3759 48.1061 33.3511 48.085 33.3224 48.0706C33.2937 48.0563 33.2618 48.0491 33.2296 48.0497H32.0814C32.0495 48.0503 32.019 48.0623 31.9953 48.0833C31.9717 48.1044 31.9566 48.1331 31.9527 48.1643L31.9487 48.2186C31.9464 48.2387 31.9393 48.258 31.9281 48.2749C31.9169 48.2919 31.9019 48.3059 31.8843 48.3159C31.8666 48.3259 31.8469 48.3316 31.8266 48.3325C31.8063 48.3334 31.7862 48.3295 31.7677 48.3211C31.6309 48.2595 31.5123 48.3399 31.4118 48.5624C29.7628 46.264 28.2507 43.8188 26.5475 41.5727C25.7391 40.5029 25.0373 39.3627 24.2088 38.303C24.1899 38.2791 24.1661 38.2597 24.139 38.2462C24.1119 38.2326 24.0822 38.2252 24.052 38.2246C23.5613 38.2205 24.0319 38.5403 24.1525 38.7152C28.3794 44.8028 32.5881 50.887 36.7788 56.9679C36.7971 56.9949 36.8217 57.0171 36.8505 57.0326C36.8793 57.048 36.9115 57.0561 36.9441 57.0563C36.9768 57.0565 37.009 57.0488 37.038 57.0337C37.067 57.0186 37.0919 56.9967 37.1106 56.9699C41.3227 50.889 45.5301 44.8068 49.7328 38.7233C49.9004 38.4806 50.1195 38.3633 50.3903 38.3714L37.1126 57.6073C37.0937 57.6341 37.0687 57.6559 37.0396 57.671C37.0106 57.6861 36.9784 57.694 36.9458 57.694C36.9132 57.694 36.8812 57.6861 36.8525 57.671C36.8237 57.6559 36.7991 57.6341 36.7808 57.6073L23.4085 38.2949C23.3864 38.2633 23.3741 38.2258 23.373 38.1869C23.3719 38.148 23.3822 38.1094 23.4025 38.0758L36.64 16.0366Z" fill="white"/>
<path d="M63.9135 22.5379C63.9378 22.525 63.9644 22.5172 63.9918 22.515C64.0192 22.5129 64.0467 22.5163 64.0727 22.5251C64.0987 22.534 64.1226 22.5481 64.143 22.5665C64.1633 22.585 64.1797 22.6074 64.191 22.6324L65.8319 26.2681C65.8431 26.2931 65.8491 26.3203 65.8494 26.3478C65.8497 26.3753 65.8443 26.4026 65.8335 26.428C65.8228 26.4535 65.8069 26.4765 65.7869 26.4957C65.7669 26.5149 65.7432 26.5298 65.7173 26.5396L62.3732 27.7742C62.325 27.7916 62.2721 27.7902 62.2251 27.7704C62.1781 27.7507 62.1405 27.714 62.1198 27.6676L60.68 24.4543C60.6594 24.4076 60.6573 24.3549 60.6741 24.3067C60.6909 24.2586 60.7253 24.2186 60.7705 24.1949L63.9135 22.5379Z" fill="white"/>
<path d="M37.8586 23.672C40.3239 27.86 42.8188 32.0245 45.3431 36.1655C45.4597 36.3545 45.4537 36.6883 45.5482 36.803C45.8927 37.2212 45.8431 37.4666 45.3994 37.5389C45.3762 37.5425 45.3541 37.5512 45.3347 37.5644C45.3152 37.5776 45.299 37.5951 45.2871 37.6154C45.2751 37.6358 45.2679 37.6586 45.2657 37.6823C45.2636 37.7059 45.2666 37.7297 45.2747 37.7521L45.2948 37.8044C45.3037 37.8287 45.303 37.8555 45.293 37.8794C45.2829 37.9033 45.2641 37.9225 45.2405 37.9331C42.9139 39.0049 40.5431 39.958 38.2286 41.058C37.8667 41.2289 37.5107 41.3194 37.1327 41.442C36.5576 41.6311 36.1594 41.4501 35.6507 41.2229C33.369 40.2067 31.0894 39.1879 28.8117 38.1663C28.3914 37.9793 28.0074 37.5671 28.8057 37.3942L36.6823 40.9051C36.7075 40.9166 36.7351 40.9225 36.7632 40.9225C36.7912 40.9225 36.8192 40.9166 36.8451 40.9051L44.9047 37.3258C44.9307 37.3142 44.954 37.2972 44.973 37.2759C44.992 37.2547 45.0062 37.2296 45.0148 37.2024C45.0233 37.1752 45.026 37.1465 45.0226 37.1182C45.0193 37.0899 45.0099 37.0627 44.9952 37.0382L37.1065 23.8972C37.0891 23.8674 37.0642 23.8427 37.0342 23.8256C37.0043 23.8085 36.9703 23.7995 36.9356 23.7995C36.9009 23.7995 36.8668 23.8085 36.8364 23.8256C36.8061 23.8427 36.7807 23.8674 36.7627 23.8972L28.7775 37.2051C28.763 37.2301 28.7554 37.2593 28.7554 37.2896V37.3439C28.1964 37.3211 28.0583 37.0684 28.3412 36.5858C29.7086 34.2505 32.0921 30.269 35.4918 24.6412C35.8578 23.987 36.3169 23.4066 36.8693 22.8998C36.9083 22.8637 36.96 22.8444 37.0131 22.8463C37.0662 22.8482 37.1165 22.8711 37.1528 22.9099L37.8586 23.672Z" fill="white"/>
<path d="M9.34245 24.784C8.37187 27.0026 7.69488 29.3051 7.31148 31.6913C7.27528 31.9165 7.2793 32.5278 7.16267 32.8898C7.09698 33.0949 7.05878 33.2578 7.04805 33.3784C6.85099 35.4925 6.86238 37.6046 7.08224 39.7147C7.15463 40.4212 7.34499 41.7463 7.65332 43.6902C7.70561 44.024 7.92881 44.3819 7.98311 44.766C8.01528 44.9805 8.04343 45.1293 8.06756 45.2124C8.89872 48.0021 10.069 50.6397 11.5785 53.1252C11.6831 53.2981 11.8782 53.4308 11.9767 53.5857C12.7971 54.8753 13.7161 56.0912 14.7336 57.2334C14.7624 57.2659 14.8012 57.288 14.8441 57.2963C14.8869 57.3047 14.9314 57.2988 14.9709 57.2796C15.4307 57.0571 15.4099 56.8211 14.9085 56.5718C14.8658 56.5505 14.8321 56.5148 14.8133 56.471C14.7945 56.4272 14.7919 56.3781 14.806 56.3325C14.8878 56.0684 15.0982 55.9766 15.4374 56.057C17.587 56.5617 15.5641 54.581 15.1881 54.2131C15.1398 54.1668 15.1056 54.0743 15.1096 54.02C15.1123 53.965 15.1351 53.955 15.178 53.9898L15.6023 54.3397C15.63 54.3634 15.6508 54.394 15.6626 54.4282C15.8128 54.8559 15.9656 55.0603 16.1211 55.0415C16.2444 55.0268 16.2665 54.9712 16.1875 54.8746C14.4782 52.7773 13.0364 50.5633 11.9606 48.094C11.3352 46.6582 11.0778 45.7131 10.7058 44.6956C10.5329 44.2271 10.5852 43.7565 10.4062 43.3342C10.248 42.9616 10.3318 42.8081 10.6576 42.8738C15.2061 62.6346 38.7434 70.4528 54.213 57.354C58.8581 53.4208 62.0031 47.9834 63.1855 42.0252C63.8893 38.4834 63.8531 34.8799 63.0769 31.2147C63.0655 31.1627 63.0752 31.1084 63.1039 31.0635C63.1325 31.0187 63.1778 30.987 63.2297 30.9754L66.7729 30.1872C66.7991 30.1815 66.8261 30.1809 66.8525 30.1855C66.8788 30.1901 66.904 30.1997 66.9264 30.2139C66.9488 30.2282 66.9681 30.2466 66.9832 30.2682C66.9983 30.2899 67.0088 30.3143 67.0142 30.34C70.857 48.0296 59.031 64.9792 41.1705 67.4687C32.2161 68.7154 23.2476 65.862 16.5313 59.8736C16.5675 59.623 16.5132 59.4292 16.3684 59.2925C10.7393 54.0106 7.54474 47.5189 6.78463 39.8172C6.73033 39.2803 6.49506 37.5248 6.72229 37.1126C6.74073 37.0797 6.74978 37.0421 6.74843 37.004C6.50914 32.8556 7.34164 28.3633 8.99658 24.611C9.00614 24.5898 9.02019 24.5709 9.03777 24.5556C9.05536 24.5403 9.07605 24.529 9.09843 24.5225C9.1208 24.516 9.14432 24.5144 9.16736 24.5179C9.1904 24.5214 9.2124 24.5298 9.23186 24.5427C9.30559 24.5909 9.34245 24.6714 9.34245 24.784Z" fill="white"/>
<path d="M42.739 48.2328L37.1689 56.4211C37.1529 56.4448 37.1321 56.4648 37.1077 56.4797C37.0834 56.4947 37.0561 56.5043 37.0278 56.508C36.9994 56.5116 36.9706 56.5091 36.9433 56.5007C36.916 56.4923 36.8907 56.4782 36.8693 56.4593C36.62 56.2381 36.4102 55.9914 36.2399 55.7193C34.7197 53.2761 32.9743 50.9757 31.4118 48.5626C31.5124 48.3401 31.631 48.2596 31.7677 48.3213C31.7862 48.3297 31.8064 48.3336 31.8266 48.3327C31.8469 48.3317 31.8667 48.3261 31.8843 48.3161C31.9019 48.3061 31.917 48.292 31.9282 48.2751C31.9394 48.2582 31.9464 48.2389 31.9487 48.2188L31.9527 48.1645C31.9566 48.1333 31.9717 48.1046 31.9954 48.0835C32.019 48.0625 32.0495 48.0505 32.0814 48.0498H33.2296C33.2619 48.0493 33.2937 48.0565 33.3225 48.0708C33.3512 48.0852 33.3759 48.1063 33.3945 48.1323C33.6305 48.4647 33.6653 48.442 33.4991 48.0639C33.4801 48.021 33.4767 47.9727 33.4896 47.9275C33.5024 47.8823 33.5307 47.8431 33.5695 47.8166L33.6218 47.7824C33.6564 47.7589 33.6804 47.7226 33.6886 47.6813C33.6969 47.64 33.6888 47.5969 33.666 47.5612C33.5427 47.3682 33.4321 47.1697 33.3342 46.966C32.9863 46.2441 32.4233 45.6207 32.011 44.931C31.9427 44.817 31.7604 44.5717 31.4641 44.195C31.2952 43.9792 31.1625 43.7392 31.0659 43.4751C31.0559 43.4473 31.0521 43.4177 31.0549 43.3882C31.0577 43.3587 31.067 43.3302 31.0822 43.3047C31.0973 43.2792 31.118 43.2572 31.1426 43.2405C31.1673 43.2237 31.1953 43.2125 31.2248 43.2077C31.3387 43.1902 31.454 43.1963 31.5707 43.2258L36.626 50.5051C36.6443 50.5318 36.6688 50.5535 36.6975 50.5684C36.7261 50.5834 36.7581 50.5911 36.7905 50.5909C36.823 50.5907 36.855 50.5826 36.8838 50.5673C36.9126 50.552 36.9373 50.53 36.9558 50.5031L41.7276 43.6038C41.9447 43.2888 41.8791 43.209 41.5305 43.3645L37.0664 45.3533C37.0411 45.3647 37.0135 45.3706 36.9855 45.3706C36.9574 45.3706 36.9295 45.3647 36.9035 45.3533L31.6109 42.9845C31.5995 42.9796 31.587 42.978 31.575 42.9798C31.5629 42.9815 31.5516 42.9867 31.5425 42.9945C31.5144 43.0186 31.5043 43.0481 31.5124 43.083C30.8327 42.953 30.763 42.6962 31.3032 42.3128C31.3459 42.2831 31.3977 42.2709 31.448 42.2786C31.692 42.3135 32.0365 42.4301 32.4816 42.6285C33.9924 43.2975 35.4416 43.9611 36.8291 44.6193C36.8555 44.6319 36.8843 44.6387 36.9135 44.639C36.9427 44.6393 36.9715 44.6333 36.998 44.6213C38.5611 43.9121 40.015 43.2613 41.3596 42.6688C41.7819 42.4824 42.2222 42.3799 42.6807 42.3611C42.7146 42.3598 42.7483 42.367 42.7785 42.3822C42.8088 42.3973 42.8346 42.4198 42.8537 42.4476C43.1673 42.8953 43.0185 43.1842 42.4072 43.3142C42.3569 43.3246 42.3128 43.3542 42.2846 43.3967L37.0302 50.9676C37.0138 50.9915 37.0028 51.0188 36.9979 51.0476C36.9931 51.0764 36.9945 51.1061 37.002 51.1345C37.0342 51.2525 37.0014 51.3168 36.9035 51.3276C36.7493 51.3436 36.7533 51.3577 36.9156 51.3698C37.0898 51.3832 37.246 51.2961 37.3841 51.1084C38.9445 48.9943 40.1162 47.3601 40.8991 46.2059C40.9742 46.0933 41.0063 46.1047 40.9956 46.2401L40.9876 46.3225C40.9851 46.3509 40.9766 46.3785 40.9628 46.4035C40.9489 46.4284 40.93 46.4502 40.9071 46.4673C40.7543 46.5812 40.7067 46.7247 40.7644 46.8976C40.9071 47.3299 41.5184 47.3058 41.9186 47.3179C42.3865 47.334 42.6599 47.639 42.739 48.2328Z" fill="white"/>
</svg>
