<svg width="48" height="48" viewBox="0 0 48 48" fill="none" xmlns="http://www.w3.org/2000/svg">
<rect width="48" height="48" rx="24" fill="#290064"/>
<path d="M29.4167 17.9917C27.25 21.7834 23.075 23.9584 18.725 23.5667L16.0833 23.325" stroke="white" stroke-miterlimit="10" stroke-linecap="round" stroke-linejoin="round"/>
<path d="M18.5833 30.1416C20.75 26.35 24.925 24.175 29.275 24.5666L31.9167 24.8083" stroke="white" stroke-miterlimit="10" stroke-linecap="round" stroke-linejoin="round"/>
<path d="M24 32.3333C28.6024 32.3333 32.3333 28.6023 32.3333 24C32.3333 19.3976 28.6024 15.6666 24 15.6666C19.3976 15.6666 15.6667 19.3976 15.6667 24C15.6667 28.6023 19.3976 32.3333 24 32.3333Z" stroke="white" stroke-miterlimit="10" stroke-linecap="round" stroke-linejoin="round"/>
<path d="M20.3583 16.5L23.0083 19.7917C24.7833 21.9917 26.0417 24.55 26.7083 27.2917L27.7167 31.45" stroke="white" stroke-miterlimit="10" stroke-linecap="round" stroke-linejoin="round"/>
</svg>
